<svg width="261" height="82" viewBox="0 0 261 82" fill="none" xmlns="http://www.w3.org/2000/svg">
    <path fill-rule="evenodd" clip-rule="evenodd" d="M96.5032 29.23L103.393 17.01V17H109.063L98.2132 35.58V46.97H93.0132V35.63L81.9932 17.01H87.7832L94.8432 29.27L95.6732 30.96L96.5032 29.23ZM118.053 24.54C120.203 24.54 122.163 25.04 123.913 26.04H123.903C125.653 27.04 127.033 28.41 128.043 30.16C129.053 31.9 129.553 33.86 129.553 36.01C129.553 38.16 129.043 40.11 128.043 41.86C127.043 43.61 125.653 44.98 123.903 45.98C122.153 46.98 120.173 47.48 118.023 47.48C115.873 47.48 113.913 46.98 112.163 45.98C110.413 44.98 109.033 43.6 108.023 41.86C107.013 40.12 106.513 38.16 106.513 36.01C106.513 33.86 107.013 31.91 108.013 30.16C109.013 28.41 110.393 27.04 112.153 26.04C113.923 25.04 115.903 24.54 118.053 24.54ZM121.313 42.09C122.263 41.51 123.003 40.69 123.523 39.63C124.043 38.57 124.303 37.38 124.303 36.01C124.303 34.64 124.043 33.43 123.513 32.38C122.993 31.33 122.253 30.51 121.303 29.92C120.353 29.33 119.263 29.03 118.043 29.03C116.823 29.03 115.733 29.33 114.783 29.91C113.843 30.49 113.103 31.31 112.583 32.37C112.063 33.43 111.803 34.65 111.803 36.01C111.803 37.37 112.063 38.58 112.583 39.63C113.103 40.68 113.833 41.51 114.783 42.09C115.723 42.68 116.823 42.97 118.043 42.97C119.263 42.97 120.353 42.67 121.313 42.09ZM146.923 40.5C147.343 39.69 147.553 38.78 147.553 37.75L147.543 37.73V25.04H152.593V46.96H147.693V43.73C147.063 44.79 146.253 45.66 145.243 46.29C143.993 47.08 142.523 47.47 140.843 47.47C139.273 47.47 137.893 47.12 136.713 46.44C135.533 45.76 134.613 44.77 133.953 43.47C133.303 42.18 132.973 40.63 132.973 38.83V25.05H138.003V38.06C138.003 39.12 138.183 40.02 138.543 40.76C138.903 41.5 139.403 42.07 140.073 42.46C140.743 42.85 141.543 43.05 142.483 43.05C143.473 43.05 144.363 42.83 145.133 42.38C145.903 41.93 146.503 41.31 146.923 40.5ZM152.033 17.01H175.873H175.883V21.83H166.633V46.98H161.323V21.83H152.033V17.01ZM180.263 28.38C180.833 27.45 181.533 26.69 182.363 26.12L182.353 26.13C183.523 25.32 184.883 24.92 186.443 24.92H187.253V30.01H185.843C184.723 30.01 183.733 30.22 182.903 30.63C182.063 31.05 181.423 31.64 180.973 32.41C180.523 33.18 180.303 34.09 180.303 35.15V46.98H175.253V25.06H180.263V28.38ZM203.553 25.74C204.663 26.4 205.573 27.28 206.283 28.37V25.06H211.253V46.98H206.283V43.67C205.573 44.76 204.663 45.65 203.553 46.3C202.193 47.1 200.603 47.5 198.793 47.5C196.853 47.5 195.113 47.01 193.573 46.03C192.033 45.05 190.823 43.69 189.953 41.94C189.083 40.19 188.643 38.22 188.643 36.02C188.643 33.82 189.083 31.85 189.953 30.1C190.823 28.35 192.033 26.99 193.563 26.01C195.093 25.03 196.833 24.54 198.793 24.54C200.603 24.54 202.193 24.94 203.553 25.74ZM203.253 42.1C204.203 41.51 204.933 40.69 205.463 39.64C205.993 38.59 206.253 37.38 206.253 36.01C206.253 34.64 205.993 33.43 205.463 32.38C204.933 31.33 204.193 30.51 203.253 29.92C202.313 29.33 201.203 29.03 200.003 29.03C198.803 29.03 197.733 29.33 196.793 29.92C195.853 30.51 195.123 31.33 194.603 32.38C194.083 33.43 193.823 34.64 193.823 36.01C193.823 37.38 194.083 38.59 194.603 39.65C195.123 40.7 195.853 41.52 196.793 42.11C197.733 42.7 198.783 42.99 200.003 42.99C201.223 42.99 202.313 42.69 203.253 42.1ZM226.473 29.02C225.303 29.02 224.243 29.32 223.313 29.92V29.91C222.383 30.51 221.653 31.34 221.123 32.4C220.593 33.47 220.333 34.69 220.333 36.01C220.333 37.33 220.593 38.53 221.123 39.59C221.643 40.65 222.373 41.48 223.313 42.09C224.253 42.7 225.303 43 226.473 43C227.273 43 228.023 42.85 228.723 42.55C229.423 42.25 230.033 41.84 230.553 41.3C231.073 40.76 231.483 40.12 231.783 39.38H237.153C236.763 40.98 236.063 42.39 235.063 43.61C234.063 44.83 232.813 45.78 231.333 46.46C229.853 47.14 228.223 47.48 226.453 47.48C224.313 47.48 222.373 46.98 220.643 45.98C218.903 44.98 217.543 43.61 216.553 41.86C215.563 40.12 215.063 38.16 215.063 36.01C215.063 33.86 215.563 31.91 216.553 30.16C217.543 28.41 218.913 27.04 220.643 26.04C222.373 25.04 224.313 24.54 226.453 24.54C228.223 24.54 229.853 24.88 231.333 25.56C232.813 26.24 234.053 27.19 235.063 28.41C236.073 29.63 236.763 31.04 237.153 32.64H231.783C231.483 31.89 231.073 31.26 230.553 30.72C230.033 30.19 229.423 29.77 228.723 29.47C228.023 29.17 227.273 29.02 226.473 29.02ZM251.267 35.2852L260.143 25.06H254.283L245.723 34.82V17.01H240.673V46.97H245.723V36.1L254.393 46.97H260.533L251.267 35.2852ZM91.11 66C90.25 66 89.47 66.22 88.77 66.65V66.63C88.07 67.06 87.52 67.65 87.13 68.41C86.74 69.17 86.54 70.02 86.54 70.97C86.54 71.92 86.74 72.77 87.13 73.53C87.53 74.29 88.07 74.88 88.77 75.31C89.47 75.74 90.25 75.96 91.11 75.96C91.75 75.96 92.34 75.85 92.88 75.64C93.42 75.43 93.89 75.12 94.28 74.72C94.67 74.32 94.97 73.85 95.16 73.32H97.78C97.55 74.28 97.12 75.14 96.5 75.88C95.87 76.62 95.09 77.2 94.16 77.61C93.23 78.02 92.2 78.23 91.09 78.23C89.75 78.23 88.55 77.91 87.47 77.28C86.39 76.65 85.55 75.78 84.93 74.68C84.31 73.57 84 72.34 84 70.98C84 69.62 84.31 68.38 84.93 67.28C85.54 66.18 86.39 65.31 87.47 64.68C88.55 64.05 89.76 63.73 91.09 63.73C92.2 63.73 93.23 63.94 94.16 64.35C95.1 64.76 95.87 65.33 96.5 66.08C97.13 66.83 97.55 67.68 97.78 68.64H95.16C94.96 68.11 94.67 67.64 94.28 67.24C93.89 66.84 93.42 66.53 92.88 66.32C92.33 66.11 91.74 66 91.11 66ZM104.45 67.5C105.45 67.5 106.35 67.73 107.14 68.18V68.17C107.93 68.63 108.54 69.26 108.98 70.07C109.42 70.88 109.64 71.81 109.64 72.85V73.42H101.57C101.61 73.89 101.71 74.33 101.91 74.72C102.16 75.21 102.51 75.6 102.95 75.87C103.4 76.14 103.9 76.28 104.46 76.28C104.95 76.28 105.4 76.18 105.79 75.99C106.18 75.8 106.51 75.53 106.77 75.18H109.34C109.1 75.81 108.75 76.36 108.29 76.81C107.83 77.26 107.27 77.61 106.62 77.86C105.97 78.11 105.24 78.23 104.45 78.23C103.44 78.23 102.53 78 101.73 77.54C100.93 77.08 100.3 76.44 99.83 75.62C99.36 74.8 99.13 73.85 99.13 72.85C99.13 71.85 99.36 70.94 99.83 70.12C100.3 69.3 100.94 68.66 101.75 68.2C102.56 67.73 103.45 67.5 104.45 67.5ZM101.9 70.9C101.75 71.2 101.66 71.52 101.6 71.85H101.61H107.21C107.15 71.53 107.07 71.23 106.94 70.96C106.7 70.46 106.37 70.07 105.94 69.79C105.51 69.51 105.01 69.37 104.45 69.37C103.89 69.37 103.38 69.51 102.94 69.78C102.5 70.05 102.15 70.42 101.9 70.9ZM113.85 69.3C114.12 68.86 114.44 68.51 114.83 68.24L114.84 68.25C115.39 67.87 116.02 67.68 116.75 67.68H117.13V70.06H116.47C115.94 70.06 115.48 70.16 115.09 70.35C114.7 70.54 114.4 70.82 114.19 71.18C113.98 71.54 113.87 71.97 113.87 72.46V78H111.51V67.75H113.85V69.3ZM118.65 65.18H121.01H121.02V67.74H123.73V69.79H121.02V75.12C121.02 75.37 121.09 75.57 121.24 75.72C121.39 75.87 121.59 75.94 121.85 75.94H123.73V77.99H121.37C120.81 77.99 120.33 77.89 119.92 77.68C119.51 77.47 119.2 77.18 118.98 76.79C118.76 76.4 118.65 75.95 118.65 75.42V65.18ZM127.95 66.66H125.26V64.32H127.95V66.66ZM127.79 78H125.43V77.99V67.74H127.79V78ZM131.48 65.22C131.72 64.83 132.06 64.53 132.49 64.31H132.48C132.91 64.09 133.41 63.98 133.97 63.98H140.25V65.87H134.41C134.14 65.87 133.91 65.96 133.74 66.13C133.57 66.3 133.48 66.53 133.48 66.8V67.75H136.14V69.8H133.48V78H131.12V69.8H129.31V67.75H131.12V66.58C131.12 66.06 131.24 65.61 131.48 65.22ZM140.21 78H137.85V77.99V67.74H140.21V78ZM147.37 67.5C148.37 67.5 149.27 67.73 150.06 68.18V68.17C150.85 68.63 151.46 69.26 151.9 70.07C152.34 70.88 152.56 71.81 152.56 72.85V73.42H144.49C144.53 73.89 144.63 74.33 144.83 74.72C145.08 75.21 145.43 75.6 145.87 75.87C146.32 76.14 146.82 76.28 147.38 76.28C147.87 76.28 148.32 76.18 148.71 75.99C149.1 75.8 149.43 75.53 149.69 75.18H152.26C152.02 75.81 151.67 76.36 151.21 76.81C150.75 77.26 150.19 77.61 149.54 77.86C148.89 78.11 148.16 78.23 147.37 78.23C146.36 78.23 145.45 78 144.65 77.54C143.85 77.08 143.22 76.44 142.75 75.62C142.28 74.8 142.05 73.85 142.05 72.85C142.05 71.85 142.28 70.94 142.75 70.12C143.22 69.3 143.86 68.66 144.67 68.2C145.48 67.73 146.37 67.5 147.37 67.5ZM144.82 70.9C144.67 71.2 144.58 71.52 144.52 71.85H144.53H150.13C150.07 71.53 149.99 71.23 149.86 70.96C149.62 70.46 149.29 70.07 148.86 69.79C148.43 69.51 147.93 69.37 147.37 69.37C146.81 69.37 146.3 69.51 145.86 69.78C145.42 70.05 145.07 70.42 144.82 70.9ZM162.07 69.2649C161.742 68.7717 161.325 68.367 160.81 68.07C160.17 67.7 159.43 67.51 158.58 67.51C157.67 67.51 156.85 67.74 156.13 68.2C155.41 68.66 154.85 69.29 154.44 70.11C154.03 70.93 153.83 71.85 153.83 72.88C153.83 73.91 154.03 74.83 154.44 75.65C154.85 76.47 155.41 77.11 156.13 77.56C156.85 78.02 157.66 78.25 158.57 78.25C159.42 78.25 160.16 78.06 160.8 77.69C161.32 77.39 161.73 76.98 162.07 76.48V78.01H164.43V63.98H162.07V69.2649ZM160.68 75.72C161.12 75.44 161.46 75.06 161.71 74.57V74.58C161.96 74.09 162.08 73.52 162.08 72.88C162.08 72.24 161.96 71.67 161.71 71.18C161.46 70.69 161.12 70.31 160.68 70.03C160.24 69.75 159.72 69.61 159.16 69.61C158.6 69.61 158.1 69.75 157.66 70.03C157.22 70.31 156.87 70.69 156.63 71.18C156.38 71.67 156.26 72.24 156.26 72.88C156.26 73.52 156.39 74.09 156.63 74.58C156.88 75.07 157.22 75.46 157.66 75.73C158.1 76 158.59 76.14 159.16 76.14C159.73 76.14 160.24 76 160.68 75.72ZM179 63.98C179.96 63.98 180.8 64.16 181.53 64.51H181.52C182.25 64.86 182.81 65.36 183.21 66.01C183.61 66.66 183.81 67.39 183.81 68.25C183.81 69.11 183.6 69.86 183.2 70.51C182.8 71.16 182.23 71.67 181.49 72.03C180.75 72.39 179.89 72.57 178.91 72.57H175.54V78H173.05V63.98H179ZM180.11 70.2C180.47 70.02 180.74 69.76 180.94 69.43V69.44C181.14 69.11 181.24 68.71 181.24 68.27C181.24 67.83 181.14 67.45 180.94 67.12C180.74 66.79 180.47 66.54 180.11 66.36C179.75 66.18 179.33 66.09 178.84 66.09H175.54V70.47H178.84C179.33 70.47 179.75 70.38 180.11 70.2ZM189.34 67.5C190.17 67.5 190.9 67.65 191.52 67.94L191.53 67.96C192.15 68.25 192.64 68.68 192.98 69.24C193.33 69.8 193.5 70.46 193.5 71.21V78.01H191.17V76.52C190.89 77.04 190.53 77.47 190.05 77.76C189.52 78.09 188.88 78.25 188.14 78.25C187.48 78.25 186.89 78.13 186.37 77.87C185.85 77.61 185.44 77.26 185.14 76.81C184.84 76.36 184.69 75.84 184.69 75.28C184.69 74.72 184.83 74.21 185.12 73.74C185.41 73.27 185.8 72.88 186.31 72.58C186.82 72.27 187.39 72.09 188.03 72.02L190.56 71.73C190.74 71.71 190.88 71.63 190.99 71.5C191.06 71.41 191.1 71.29 191.13 71.16V70.96C191.13 70.64 191.06 70.37 190.91 70.14C190.76 69.91 190.55 69.73 190.28 69.61C190.01 69.48 189.68 69.42 189.31 69.42C188.94 69.42 188.62 69.48 188.34 69.59C188.06 69.71 187.83 69.86 187.67 70.05C187.5 70.24 187.4 70.46 187.37 70.7H185.04C185.12 70.09 185.34 69.54 185.71 69.06C186.08 68.58 186.57 68.2 187.2 67.92C187.83 67.64 188.51 67.5 189.34 67.5ZM190.85 75.34C191.04 75 191.13 74.61 191.13 74.16V73.18L188.6 73.48C188.31 73.51 188.05 73.6 187.82 73.74C187.59 73.88 187.42 74.06 187.29 74.28C187.16 74.5 187.1 74.74 187.1 75.01C187.1 75.28 187.17 75.53 187.32 75.74C187.47 75.95 187.67 76.12 187.94 76.23C188.21 76.34 188.51 76.4 188.86 76.4C189.31 76.4 189.7 76.3 190.05 76.12C190.4 75.94 190.66 75.68 190.85 75.34ZM198.2 69.3C198.47 68.86 198.79 68.51 199.18 68.24L199.19 68.25C199.74 67.87 200.37 67.68 201.1 67.68H201.48V70.06H200.82C200.29 70.06 199.83 70.16 199.44 70.35C199.05 70.54 198.75 70.82 198.54 71.18C198.33 71.54 198.22 71.97 198.22 72.46V78H195.86V67.75H198.2V69.3ZM203 65.18H205.36H205.37V67.74H208.08V69.79H205.37V75.12C205.37 75.37 205.44 75.57 205.59 75.72C205.74 75.87 205.94 75.94 206.2 75.94H208.08V77.99H205.72C205.16 77.99 204.68 77.89 204.27 77.68C203.86 77.47 203.55 77.18 203.33 76.79C203.11 76.4 203 75.95 203 75.42V65.18ZM215.34 67.5C216.07 67.5 216.72 67.66 217.27 67.98C217.82 68.3 218.25 68.76 218.56 69.37C218.87 69.98 219.02 70.7 219.02 71.54V77.99H216.67V71.9C216.67 71.41 216.59 70.99 216.42 70.64C216.25 70.29 216.01 70.02 215.7 69.84C215.39 69.65 215.01 69.56 214.58 69.56C214.11 69.56 213.7 69.67 213.34 69.88C212.98 70.09 212.7 70.38 212.5 70.76C212.3 71.14 212.2 71.57 212.2 72.05V77.99H209.84V67.74H212.13V69.24C212.43 68.75 212.81 68.35 213.28 68.05C213.87 67.68 214.55 67.5 215.34 67.5ZM226.11 67.5C227.11 67.5 228.01 67.73 228.8 68.18V68.17C229.59 68.63 230.2 69.26 230.64 70.07C231.08 70.88 231.3 71.81 231.3 72.85V73.42H223.23C223.27 73.89 223.37 74.33 223.57 74.72C223.82 75.21 224.17 75.6 224.61 75.87C225.06 76.14 225.56 76.28 226.12 76.28C226.61 76.28 227.06 76.18 227.45 75.99C227.84 75.8 228.17 75.53 228.43 75.18H231C230.76 75.81 230.41 76.36 229.95 76.81C229.49 77.26 228.93 77.61 228.28 77.86C227.63 78.11 226.9 78.23 226.11 78.23C225.1 78.23 224.19 78 223.39 77.54C222.59 77.08 221.96 76.44 221.49 75.62C221.02 74.8 220.79 73.85 220.79 72.85C220.79 71.85 221.02 70.94 221.49 70.12C221.96 69.3 222.6 68.66 223.41 68.2C224.22 67.73 225.11 67.5 226.11 67.5ZM223.56 70.9C223.41 71.2 223.32 71.52 223.26 71.85H223.27H228.87C228.81 71.53 228.73 71.23 228.6 70.96C228.36 70.46 228.03 70.07 227.6 69.79C227.17 69.51 226.67 69.37 226.11 69.37C225.55 69.37 225.04 69.51 224.6 69.78C224.16 70.05 223.81 70.42 223.56 70.9ZM236.49 68.24C237.04 67.86 237.67 67.67 238.4 67.67L238.41 67.68H238.79V70.06H238.13C237.6 70.06 237.14 70.16 236.75 70.35C236.36 70.54 236.06 70.82 235.85 71.18C235.64 71.54 235.53 71.97 235.53 72.46V78H233.17V67.75H235.51V69.3C235.78 68.86 236.1 68.51 236.49 68.24Z" fill="white"/>
    <path d="M1.30634 51.2446C1.20946 51.1733 1.17759 51.0427 1.23009 50.9346L8.86571 35.209L0.0582136 24.6908C-0.0305364 24.5852 -0.0161614 24.4271 0.0900886 24.339L25.7788 2.93209C30.3495 -0.877908 36.967 -0.985408 41.6626 2.67147C46.3563 6.32834 47.8563 12.7596 45.2595 18.1077L42.4601 23.8746C43.552 23.5083 44.6326 23.1752 45.7013 22.8758L58.3751 19.2352C58.5132 19.1952 58.657 19.2802 58.6882 19.4208L63.9938 43.0058C64.0263 43.1515 63.9276 43.294 63.7788 43.3127C62.097 43.5246 52.9213 44.8427 41.4976 49.6421C28.5545 55.0783 20.0132 62.8046 18.8032 63.9346C18.7138 64.0183 18.5826 64.0215 18.4845 63.949L1.30634 51.2446Z" fill="url(#paint0_linear_6835_1424)"/>
    <path d="M52 12.0002H12V52.0002H52V12.0002Z" fill="black"/>
    <path d="M21.4666 26.3728L15.9785 16.994H19.1298L22.5279 22.9859L22.9248 23.8434L23.3216 22.9753L26.6335 16.994H29.731L24.3285 26.3515V32.0003H21.4666V26.3728Z" fill="white"/>
    <path d="M33 44.0002H17V47.0002H33V44.0002Z" fill="white"/>
    <path d="M42.3248 16.994H30.2879L30.2873 19.6309H34.8535V32.0003H37.7798V19.6309H42.3248V16.994Z" fill="white"/>
    <defs>
        <linearGradient id="paint0_linear_6835_1424" x1="-0.102411" y1="32.0002" x2="64.0532" y2="32.0002" gradientUnits="userSpaceOnUse">
            <stop stop-color="#FB43FF"/>
            <stop offset="0.97" stop-color="#FB406D"/>
        </linearGradient>
    </defs>
</svg>
